<?xml version="1.0" encoding="utf-8"?>
<!-- Generator: Adobe Illustrator 16.0.0, SVG Export Plug-In . SVG Version: 6.00 Build 0)  -->
<!DOCTYPE svg PUBLIC "-//W3C//DTD SVG 1.1 Tiny//EN" "http://www.w3.org/Graphics/SVG/1.1/DTD/svg11-tiny.dtd">
<svg version="1.1" baseProfile="tiny" id="Calque_1"
	 xmlns="http://www.w3.org/2000/svg" xmlns:xlink="http://www.w3.org/1999/xlink" x="0px" y="0px" width="550px" height="320px"
	 viewBox="0 0 550 320" xml:space="preserve">
		<style>
			path {
				fill: none;
			}
			#l, #u, #n, #g, #g-inside {
				stroke: #FFF;
				stroke-width: 4px;
			    stroke-dasharray: 440px 440px;
			    stroke-dashoffset: 440px;
			    fill: #FFF;
			    fill-opacity: 0;
			    animation: border-trace 15s ease 3s infinite;
			}
			#n {
				stroke: #BED52E;
				fill: #BED52E;
			    fill-opacity: 0;
				animation: nIntro 15s ease .05s infinite;
			}
			#g {
			    stroke-dasharray: 652px 652px;
			    stroke-dashoffset: 652px;
			}
			#g-inside {
				stroke: #BED52E;
				fill: #BED52E;
			    stroke-dasharray: 83px 83px;
			    stroke-dashoffset: 83px;
			}

			#l        { animation-delay: 3s;    }
			#u        { animation-delay: 3.1s;  }
			#g        { animation-delay: 3.15s; }
			#g-inside { animation-delay: 3.2s;  }

			@keyframes nIntro
			{
				2%      { fill-opacity: 0; }
				6%      { fill-opacity: 1; }
				10%     { fill-opacity: 0; }
				14%     { fill-opacity: 1; }
				18%     { fill-opacity: 0; }

				20%     { stroke-dashoffset: 440px; }

				27%     { stroke-dashoffset: 0px; stroke-opacity: 1; }
				27.01%  { stroke-dashoffset: 0px; stroke-opacity: 1; fill-opacity: 0; }
				34%     { stroke-dashoffset: 0px; stroke-opacity: 0; fill-opacity: 1; }
				93%     { stroke-dashoffset: 0px; stroke-opacity: 0; fill-opacity: 1; }
				100%    { stroke-dashoffset: 0px; stroke-opacity: 0; fill-opacity: 0; }
			}

			@keyFrames border-trace 
			{
				7%      { stroke-dashoffset: 0px; stroke-opacity: 1; }
				7.01%   { stroke-dashoffset: 0px; stroke-opacity: 1; fill-opacity: 0; }
				14%     { stroke-dashoffset: 0px; stroke-opacity: 0; fill-opacity: 1; }
				73%     { stroke-dashoffset: 0px; stroke-opacity: 0; fill-opacity: 1; }
				80%     { stroke-dashoffset: 0px; stroke-opacity: 0; fill-opacity: 0; }
				100%    { stroke-dashoffset: 0px; stroke-opacity: 0; fill-opacity: 0; }
			}

		</style>
		<path id="l" d="M84.634,33.776c0-0.798-0.565-1.123-1.257-0.723L52.229,51.032c-0.692,0.401-1.257,1.383-1.257,2.181
			v123.794c0,0.797,0.564,1.776,1.257,2.173l46.424,26.807c0.689,0.395,1.82,0.395,2.514,0l30.596-17.665
			c0.691-0.401,0.694-1.056,0.009-1.472l-45.887-27.086c-0.687-0.407-1.25-1.396-1.25-2.191V33.776z"/>
		<path id="n" d="M253.276,200.959c0.688,0.4,1.254,0.074,1.254-0.723v-70.794c0-0.797-0.565-1.778-1.254-2.181
			l-46.422-26.799c-0.691-0.396-1.824-0.396-2.518,0l-46.42,26.799c-0.694,0.402-1.26,1.384-1.26,2.181v70.794
			c0,0.797,0.565,1.123,1.26,0.723l31.146-17.979c0.695-0.4,1.26-1.383,1.26-2.18v-31.923c0-0.798,0.567-1.778,1.255-2.174
			l12.76-7.369c0.693-0.403,1.826-0.403,2.518,0l12.758,7.369c0.692,0.396,1.257,1.376,1.257,2.174v31.923
			c0,0.797,0.568,1.779,1.26,2.18L253.276,200.959z"/>
		<path id="u" d="M280.167,110.164c-0.694-0.409-1.261-0.076-1.261,0.722v70.794c0,0.804,0.566,1.777,1.261,2.18
			l46.426,26.801c0.683,0.401,1.813,0.401,2.507,0l46.427-26.801c0.695-0.402,1.253-1.376,1.253-2.18v-70.794
			c0-0.798-0.558-1.131-1.253-0.722l-31.152,17.978c-0.696,0.401-1.261,1.384-1.261,2.18v31.923c0,0.797-0.56,1.778-1.247,2.179
			l-12.767,7.366c-0.693,0.401-1.824,0.401-2.507,0l-12.766-7.366c-0.695-0.4-1.261-1.382-1.261-2.179v-31.923
			c0-0.796-0.565-1.778-1.253-2.18L280.167,110.164z"/>
		<path id="g" d="M451.354,100.463c-0.694-0.396-1.832-0.396-2.521,0l-46.418,26.799c-0.695,0.402-1.253,1.384-1.253,2.181
			v53.375c0,0.804,0.558,1.777,1.253,2.187l46.418,26.793c0.689,0.402,1.827,0.402,2.521,0l12.754-7.365
			c0.688-0.4,1.259-0.073,1.259,0.723v28.646c0,0.797-0.565,1.777-1.253,2.187l-45.882,27.093c-0.693,0.416-0.687,1.069,0.015,1.465
			l30.586,17.665c0.689,0.401,1.827,0.401,2.521,0l46.42-26.794c0.695-0.41,1.254-1.383,1.254-2.181V129.442
			c0-0.797-0.559-1.778-1.254-2.181L451.354,100.463z M436.082,165.561c-0.696-0.4-1.26-1.382-1.26-2.18v-14.503
			c0-0.798,0.563-1.778,1.26-2.174l12.751-7.369c0.689-0.403,1.827-0.403,2.521,0l12.754,7.369c0.688,0.396,1.259,1.376,1.259,2.174
			v14.503c0,0.798-0.571,1.779-1.259,2.18l-12.754,7.371c-0.694,0.396-1.832,0.396-2.521,0L436.082,165.561z"/>
		<path id="g-inside" d="M462.309,161.651c0,0.797-0.564,1.771-1.26,2.173l-9.694,5.6c-0.694,0.401-1.832,0.401-2.521,0l-9.699-5.6
			c-0.688-0.401-1.262-1.376-1.262-2.173v-11.206c0-0.798,0.573-1.779,1.262-2.174l9.699-5.6c0.689-0.401,1.827-0.401,2.521,0
			l9.694,5.6c0.695,0.395,1.26,1.376,1.26,2.174V161.651z"/>
</svg>
